<?xml version="1.0" standalone="no"?>
<!DOCTYPE svg PUBLIC "-//W3C//DTD SVG 20010904//EN"
 "http://www.w3.org/TR/2001/REC-SVG-20010904/DTD/svg10.dtd">
<svg version="1.0" xmlns="http://www.w3.org/2000/svg"
 width="598.000000pt" height="454.000000pt" viewBox="0 0 598.000000 454.000000"
 preserveAspectRatio="xMidYMid meet">
<metadata>
Created by potrace 1.16, written by Peter Selinger 2001-2019
</metadata>
<g transform="translate(0.000000,454.000000) scale(0.100000,-0.100000)"
fill="#000000" stroke="none">
<path d="M0 2270 l0 -2270 2990 0 2990 0 0 2270 0 2270 -2990 0 -2990 0 0
-2270z m2833 1017 c12 -13 177 -318 367 -679 l345 -656 5 665 c5 643 6 665 24
679 17 12 104 14 521 14 467 0 507 -1 579 -20 102 -26 168 -63 237 -130 68
-67 114 -157 134 -263 23 -119 22 -1313 -1 -1425 -20 -99 -64 -189 -124 -251
-60 -63 -111 -95 -207 -129 l-78 -27 -500 -3 c-454 -3 -503 -2 -532 14 -26 13
-51 53 -137 213 -767 1435 -1036 1934 -1048 1942 -13 9 2 58 21 69 9 5 96 10
194 10 173 0 179 -1 200 -23z"/>
<path d="M4013 2909 c-10 -10 -13 -169 -13 -726 l0 -712 21 -12 c15 -7 91 -10
243 -7 250 4 282 11 321 78 19 34 20 53 23 645 l2 610 -22 45 c-41 80 -57 85
-328 88 -179 2 -238 0 -247 -9z"/>
</g>
</svg>
